<svg id="visual" viewBox="0 0 900 675" width="900" height="675" xmlns="http://www.w3.org/2000/svg" xmlns:xlink="http://www.w3.org/1999/xlink" version="1.1"><rect x="0" y="0" width="900" height="675" fill="#F6e5d9"></rect><g transform="translate(881.0606324465177 691.3858427107762)"><path d="M241.9 -272.5C312.8 -228.8 369.1 -151.9 417.9 -48.1C466.6 55.7 507.9 186.3 457.6 255.5C407.3 324.7 265.6 332.4 147.4 352.8C29.3 373.1 -65.2 405.9 -162.5 393.5C-259.8 381.1 -359.8 323.3 -405.7 237.3C-451.7 151.4 -443.5 37.3 -439.1 -93.1C-434.8 -223.5 -434.3 -370.3 -361.8 -413.8C-289.3 -457.2 -144.6 -397.4 -29.6 -362.1C85.5 -326.9 171 -316.3 241.9 -272.5" fill="#d1966e"></path></g></svg>