<svg id="visual" viewBox="0 0 900 675" width="900" height="675" xmlns="http://www.w3.org/2000/svg" xmlns:xlink="http://www.w3.org/1999/xlink" version="1.1"><rect width="900" height="675" fill="#f6E5d9"></rect><g><g transform="translate(889 235)"><path d="M99.8 -121.2C123.7 -98.8 133.7 -62.1 136.1 -27.1C138.5 7.8 133.4 40.9 118.1 69C102.9 97.2 77.5 120.3 50.4 123.8C23.3 127.2 -5.6 111.1 -40.5 102.3C-75.4 93.5 -116.2 92.1 -129.7 72.9C-143.3 53.6 -129.5 16.6 -122.6 -21.5C-115.8 -59.7 -116 -99 -96.7 -122.3C-77.4 -145.5 -38.7 -152.7 -0.4 -152.2C37.9 -151.7 75.8 -143.6 99.8 -121.2Z" fill="#d1966d"></path></g><g transform="translate(88 627)"><path d="M82.9 -95.2C105.4 -79.9 120.2 -51.9 124 -23C127.7 5.9 120.4 35.6 105.4 60.3C90.5 85.1 67.9 104.8 44 107.9C20.1 110.9 -5.1 97.2 -24.6 83.3C-44.1 69.4 -57.7 55.3 -77.5 37C-97.3 18.7 -123.2 -3.8 -121.3 -22.6C-119.4 -41.3 -89.7 -56.4 -64.8 -71.3C-40 -86.2 -20 -101 5.1 -107.1C30.2 -113.2 60.4 -110.6 82.9 -95.2Z" fill="#d1966d"></path></g><g transform="translate(471 411)"><path d="M56 -61.7C71.6 -53.6 82.6 -35.1 81.7 -17.7C80.7 -0.4 67.8 15.6 56.2 29.2C44.5 42.8 34.1 54 21.3 58.8C8.4 63.7 -6.9 62.3 -21.9 57.8C-36.9 53.3 -51.6 45.8 -63.9 32.9C-76.1 19.9 -85.9 1.5 -84.3 -16.1C-82.7 -33.8 -69.8 -50.8 -53.9 -58.9C-37.9 -67 -19 -66.2 0.6 -66.9C20.2 -67.6 40.4 -69.9 56 -61.7Z" fill="#d1966d"></path></g><g transform="translate(136 91)"><path d="M50.6 -57.8C65.6 -47.7 77.7 -31.8 78.4 -15.6C79.1 0.5 68.4 16.9 58.4 33.3C48.4 49.7 39.2 66 25.8 71.1C12.3 76.1 -5.4 69.8 -21.8 62.7C-38.3 55.6 -53.4 47.6 -59.2 35.3C-65 23 -61.3 6.4 -56.3 -7.8C-51.2 -21.9 -44.6 -33.6 -35 -44.7C-25.4 -55.8 -12.7 -66.1 2.6 -69.2C17.8 -72.2 35.6 -67.9 50.6 -57.8Z" fill="#d1966d"></path></g><g transform="translate(801 630)"><path d="M34.5 -47C43.2 -33.9 47.6 -21.5 49.9 -8.8C52.1 3.9 52.2 17.1 47.2 28.8C42.3 40.6 32.3 51 19.8 56.4C7.3 61.8 -7.7 62.2 -19.6 56.6C-31.5 51.1 -40.3 39.7 -47.8 27.3C-55.4 14.9 -61.7 1.4 -63.8 -15.6C-66 -32.6 -63.9 -53.2 -52.6 -65.8C-41.3 -78.5 -20.6 -83.2 -3.9 -78.6C12.9 -74 25.8 -60.1 34.5 -47Z" fill="#d1966d"></path></g></g></svg>