<svg id="visual" viewBox="0 0 900 675" width="900" height="675" xmlns="http://www.w3.org/2000/svg" xmlns:xlink="http://www.w3.org/1999/xlink" version="1.1"><rect width="900" height="675" fill="#f6E5d9"></rect><g><g transform="translate(140 206)"><path d="M111.8 -131.6C148 -102.8 182.8 -70.6 189.4 -33.4C196 3.9 174.4 46.1 148.3 80.1C122.1 114.2 91.3 140.2 54.6 156.2C17.9 172.3 -24.6 178.4 -60.1 165.4C-95.5 152.3 -123.8 120.1 -138 84.8C-152.3 49.6 -152.5 11.3 -150.5 -31.2C-148.5 -73.7 -144.4 -120.4 -119 -151.1C-93.5 -181.8 -46.8 -196.4 -4.5 -191.1C37.8 -185.7 75.5 -160.4 111.8 -131.6Z" fill="#d1966d"></path></g><g transform="translate(838 471)"><path d="M45.6 -59.8C54.7 -46.8 54.6 -28.2 58.4 -9.8C62.2 8.5 69.8 26.6 63.6 36.3C57.5 45.9 37.5 47.2 20.2 52C2.8 56.7 -12 65.1 -26.5 63.7C-41 62.3 -55.2 51.2 -65.4 36.4C-75.6 21.5 -81.8 3 -76.9 -11.7C-72.1 -26.4 -56.3 -37.3 -41.7 -49.4C-27 -61.5 -13.5 -74.7 2.4 -77.6C18.3 -80.4 36.5 -72.9 45.6 -59.8Z" fill="#d1966d"></path></g><g transform="translate(143 660)"><path d="M80.3 -96.9C102.5 -77.1 117.8 -50.3 120.8 -22.9C123.8 4.6 114.4 32.6 98.7 54.2C82.9 75.8 60.7 90.9 38.8 93.1C16.8 95.3 -5 84.5 -23.7 74C-42.4 63.4 -58 52.9 -76.8 36.6C-95.5 20.2 -117.3 -2.2 -115.4 -21.5C-113.4 -40.9 -87.6 -57.3 -64.4 -76.9C-41.2 -96.6 -20.6 -119.6 4.2 -124.6C29 -129.7 58.1 -116.7 80.3 -96.9Z" fill="#d1966d"></path></g><g transform="translate(567 17)"><path d="M31.9 -37.4C40.3 -31 45.3 -19.9 45 -9.7C44.7 0.6 39.3 10.1 33.2 17.9C27.2 25.8 20.6 32.1 11.9 37.3C3.2 42.5 -7.6 46.5 -16.6 44C-25.6 41.4 -32.9 32.3 -36.4 22.7C-39.9 13.1 -39.8 3.1 -36.4 -4.7C-32.9 -12.4 -26.1 -17.7 -19.5 -24.4C-12.9 -31 -6.5 -38.9 2.7 -42.1C11.8 -45.3 23.6 -43.7 31.9 -37.4Z" fill="#d1966d"></path></g></g></svg>